<svg data-v-0dd9719b="" version="1.0" xmlns="http://www.w3.org/2000/svg" xmlns:xlink="http://www.w3.org/1999/xlink" width="100%" height="100%" viewBox="0 0 340.000000 250.000000" preserveAspectRatio="xMidYMid meet" color-interpolation-filters="sRGB" style="margin: auto;"> <rect data-v-0dd9719b="" x="0" y="0" width="100%" height="100%" fill="#ffffff" fill-opacity="1" class="background"></rect> <rect data-v-0dd9719b="" x="0" y="0" width="100%" height="100%" fill="url(#watermark)" fill-opacity="1" class="watermarklayer"></rect> <g data-v-0dd9719b="" class="iconmbgsvg" transform="translate(82.63999938964844,75.75207138061523)"><g fill="#000000" hollow-target="textNormalTran"><g opacity="0.55" transform="translate(31.110000610351562,0)"><g><rect fill="#000000" fill-opacity="0" stroke-width="2" x="0" y="0" width="112.5" height="98.49585879633682" class="image-rect"></rect> <svg x="0" y="0" width="112.5" height="98.49585879633682" filtersec="colorsb1750207429" class="image-svg-svg primary" style="overflow: visible;"><svg xmlns="http://www.w3.org/2000/svg" viewBox="-0.003254507901147008 -0.00003544684295775369 114.21829986572266 100.00004577636719"><path d="M80.41 62.7a1.57 1.57 0 0 0 1.36-.77 1.55 1.55 0 0 0 0-1.56L57.51 18.15a5.33 5.33 0 0 0-4.6-2.68l-12.23-.08 7.87-13.57A3.66 3.66 0 0 1 51.73 0l11.14.07A3.68 3.68 0 0 1 66 1.9l34.7 60.38a5.51 5.51 0 0 1 0 5.54l-6.11 10.44L54.44 78l7.84-13.36a4.09 4.09 0 0 1 3.57-2z" fill="#c00836"></path><path d="M43.7 84.41l52.37.11a3.64 3.64 0 0 0 3.16-1.8l6.67-11.4 7.82 13.61a3.63 3.63 0 0 1 0 3.66l-5.62 9.6a3.65 3.65 0 0 1-3.16 1.81l-70.74-.15A3.62 3.62 0 0 1 31 98l-5.49-9.59a3.65 3.65 0 0 1 0-3.66l19.3-32.81 7.65 13.47a4.11 4.11 0 0 1 0 4.11z" fill="#0bb6b4"></path><path d="M44.6 39.44l-26.28 45.3a3.64 3.64 0 0 0 0 3.64l6.53 11.48H9.16A3.68 3.68 0 0 1 6 98L.48 88.3a3.65 3.65 0 0 1 0-3.63l35-60.33a5.33 5.33 0 0 1 4.65-2.66H50.2a3.66 3.66 0 0 1 3.16 1.85l18.8 33.07-15.49-.11a4.1 4.1 0 0 1-3.54-2.07z" fill="#f78b28"></path></svg></svg> <!----></g></g> <g transform="translate(0,28.815391540527344)"><g data-gra="path-name" fill-rule="" class="tp-name" transform="translate(0,0)"><g transform="scale(1)"><g><path d="M9.92 4.44L9.92 4.44Q9.63 4.44 9.33 4.43 9.03 4.41 8.74 4.37L8.74 4.37Q7.78 4.27 6.7 3.89 5.62 3.52 4.64 2.74 3.66 1.95 2.84 0.69 2.03-0.57 1.56-2.45L1.56-2.45 4.27-3.13Q5.33 1.14 9.06 1.6L9.06 1.6Q10.02 1.71 11.04 1.56 12.05 1.42 12.92 1 13.79 0.57 14.4-0.12 15-0.82 15.18-1.74L15.18-1.74Q15.28-2.42 15.21-3.23 15.14-4.05 14.54-4.87 13.93-5.69 12.64-6.47 11.34-7.25 8.99-7.86L8.99-7.86Q7.11-8.35 5.67-9.38 4.23-10.41 3.45-11.84L3.45-11.84Q2.17-14.15 2.99-16.71L2.99-16.71Q3.66-18.84 5.4-20.1 7.14-21.36 9.53-21.47L9.53-21.47Q10.7-21.5 11.98-21.18 13.26-20.86 14.45-20.17 15.64-19.48 16.64-18.36 17.63-17.24 18.27-15.68L18.27-15.68 15.68-14.64Q15.21-15.82 14.48-16.6 13.76-17.38 12.94-17.84 12.12-18.31 11.25-18.5 10.38-18.7 9.63-18.66L9.63-18.66Q8.14-18.59 7.09-17.84 6.04-17.1 5.65-15.85L5.65-15.85Q5.23-14.4 5.9-13.19L5.9-13.19Q6.4-12.3 7.39-11.61 8.39-10.91 9.7-10.56L9.7-10.56Q12.62-9.77 14.34-8.67 16.07-7.57 16.94-6.31 17.81-5.05 17.97-3.73 18.13-2.42 17.91-1.24L17.91-1.24Q17.67 0.14 16.9 1.21 16.14 2.27 15.04 2.99 13.93 3.7 12.6 4.07 11.27 4.44 9.92 4.44ZM31.78 3.66L31.78 3.66Q29.75 3.66 27.96 2.72 26.16 1.78 24.77-0.04L24.77-0.04Q23.46-1.74 22.77-3.89 22.07-6.04 22.07-8.42L22.07-8.42Q22.07-10.81 22.77-12.97 23.46-15.14 24.77-16.85L24.77-16.85Q26.16-18.66 27.96-19.6 29.75-20.55 31.78-20.55L31.78-20.55Q33.77-20.55 35.56-19.6 37.36-18.66 38.74-16.85L38.74-16.85Q40.06-15.14 40.75-12.97 41.45-10.81 41.45-8.42L41.45-8.42Q41.45-6.04 40.75-3.89 40.06-1.74 38.74-0.04L38.74-0.04Q37.36 1.78 35.56 2.72 33.77 3.66 31.78 3.66ZM31.78-17.74L31.78-17.74Q30.36-17.74 29.09-17.01 27.83-16.28 26.89-15.02 25.95-13.76 25.4-12.05 24.85-10.34 24.85-8.42L24.85-8.42Q24.85-6.5 25.4-4.82 25.95-3.13 26.89-1.87 27.83-0.6 29.09 0.12 30.36 0.85 31.78 0.85L31.78 0.85Q33.2 0.85 34.46 0.12 35.72-0.6 36.65-1.87 37.57-3.13 38.12-4.82 38.67-6.5 38.67-8.42L38.67-8.42Q38.67-10.34 38.12-12.05 37.57-13.76 36.65-15.02 35.72-16.28 34.46-17.01 33.2-17.74 31.78-17.74ZM55.34 3.66L55.34 3.66Q53.32 3.66 51.52 2.72 49.73 1.78 48.34-0.04L48.34-0.04Q47.03-1.74 46.33-3.89 45.64-6.04 45.64-8.42L45.64-8.42Q45.64-10.81 46.33-12.97 47.03-15.14 48.34-16.85L48.34-16.85Q49.73-18.66 51.52-19.6 53.32-20.55 55.34-20.55L55.34-20.55Q57.33-20.55 59.13-19.6 60.92-18.66 62.31-16.85L62.31-16.85Q63.63-15.14 64.32-12.97 65.01-10.81 65.01-8.42L65.01-8.42Q65.01-6.04 64.32-3.89 63.63-1.74 62.31-0.04L62.31-0.04Q60.92 1.78 59.13 2.72 57.33 3.66 55.34 3.66ZM55.34-17.74L55.34-17.74Q53.92-17.74 52.66-17.01 51.4-16.28 50.46-15.02 49.51-13.76 48.96-12.05 48.41-10.34 48.41-8.42L48.41-8.42Q48.41-6.5 48.96-4.82 49.51-3.13 50.46-1.87 51.4-0.6 52.66 0.12 53.92 0.85 55.34 0.85L55.34 0.85Q56.77 0.85 58.03 0.12 59.29-0.6 60.21-1.87 61.14-3.13 61.69-4.82 62.24-6.5 62.24-8.42L62.24-8.42Q62.24-10.34 61.69-12.05 61.14-13.76 60.21-15.02 59.29-16.28 58.03-17.01 56.77-17.74 55.34-17.74ZM78.02-4.69L78.02-4.69 72.62-4.69 72.62 3.95 69.85 3.95 69.85-17.74 68.92-17.74 68.92-20.51 78.02-20.51Q79.55-20.51 80.95-19.87 82.36-19.23 83.42-18.15 84.49-17.06 85.13-15.62 85.77-14.18 85.77-12.62L85.77-12.62Q85.77-11.02 85.13-9.6 84.49-8.18 83.42-7.07 82.36-5.97 80.95-5.33 79.55-4.69 78.02-4.69ZM72.62-7.5L78.02-7.5Q78.91-7.5 79.78-7.89 80.65-8.28 81.36-8.96 82.07-9.63 82.52-10.57 82.96-11.52 82.96-12.62L82.96-12.62Q82.96-13.72 82.52-14.64 82.07-15.57 81.36-16.26 80.65-16.95 79.78-17.35 78.91-17.74 78.02-17.74L78.02-17.74 72.62-17.74 72.62-7.5Z" transform="translate(-1.559999942779541, 21.472570419311523)"></path></g> <!----> <!----> <!----> <!----> <!----> <!----> <g data-gra="path-name-1" fill="#000000" transform="translate(87.20999908447266,0)"><g transform="scale(1)"><path d="M6.08 3.98L6.08 3.98 3.31 3.98 3.31-17.49 2.24-17.49 2.24-20.3 6.08-20.3 6.08 3.98ZM20.19 3.98L20.19 3.98 17.42 3.98 17.42-20.3 20.19-20.3 20.19 3.98ZM18.8-7.25L18.8-7.25 3.55-7.25 3.55-10.06 18.8-10.06 18.8-7.25ZM34.23 3.66L34.23 3.66Q32.2 3.66 30.41 2.72 28.61 1.78 27.23-0.04L27.23-0.04Q25.91-1.74 25.22-3.89 24.53-6.04 24.53-8.42L24.53-8.42Q24.53-10.81 25.22-12.97 25.91-15.14 27.23-16.85L27.23-16.85Q28.61-18.66 30.41-19.6 32.2-20.55 34.23-20.55L34.23-20.55Q36.22-20.55 38.02-19.6 39.81-18.66 41.2-16.85L41.2-16.85Q42.51-15.14 43.2-12.97 43.9-10.81 43.9-8.42L43.9-8.42Q43.9-6.04 43.2-3.89 42.51-1.74 41.2-0.04L41.2-0.04Q39.81 1.78 38.02 2.72 36.22 3.66 34.23 3.66ZM34.23-17.74L34.23-17.74Q32.81-17.74 31.55-17.01 30.28-16.28 29.34-15.02 28.4-13.76 27.85-12.05 27.3-10.34 27.3-8.42L27.3-8.42Q27.3-6.5 27.85-4.82 28.4-3.13 29.34-1.87 30.28-0.6 31.55 0.12 32.81 0.85 34.23 0.85L34.23 0.85Q35.65 0.85 36.91 0.12 38.18-0.6 39.1-1.87 40.02-3.13 40.57-4.82 41.13-6.5 41.13-8.42L41.13-8.42Q41.13-10.34 40.57-12.05 40.02-13.76 39.1-15.02 38.18-16.28 36.91-17.01 35.65-17.74 34.23-17.74ZM52.29 3.95L52.29 3.95 49.48 3.95 49.48-19.12 52.29-19.12 52.29 3.95ZM66.29 3.91L66.29 3.91 63.7 3.91 52.11-17.74 48.7-17.74 48.7-20.51 53.78-20.51 63.48-2.42 63.48-20.79 66.29-20.79 66.29 3.91ZM81.26 3.55L81.26 3.55Q79.12 3.55 77.24 2.61 75.36 1.67 73.95 0.02 72.55-1.64 71.73-3.82 70.91-6.01 70.91-8.53L70.91-8.53Q70.91-11.02 71.73-13.22 72.55-15.43 73.95-17.06 75.36-18.7 77.24-19.66 79.12-20.62 81.26-20.62L81.26-20.62Q83.74-20.62 85.89-19.37 88.05-18.13 89.54-15.82L89.54-15.82 87.19-14.29Q86.09-16 84.56-16.9 83.03-17.81 81.26-17.81L81.26-17.81Q79.69-17.81 78.32-17.08 76.95-16.35 75.92-15.09 74.89-13.83 74.31-12.14 73.72-10.45 73.72-8.53L73.72-8.53Q73.72-6.61 74.31-4.92 74.89-3.23 75.92-1.95 76.95-0.68 78.32 0.05 79.69 0.78 81.26 0.78L81.26 0.78Q82.93 0.78 84.4-0.05 85.88-0.89 86.98-2.42L86.98-2.42 86.98-7.14 79.16-7.14 79.16-9.92 89.75-9.92 89.75-1.6 89.54-1.24Q88.05 1.07 85.89 2.31 83.74 3.55 81.26 3.55Z" transform="translate(-2.240000009536743, 21.472570419311523)"></path></g></g></g></g> <g data-gra="path-slogan" fill-rule="" class="tp-slogan" fill="#000000" transform="translate(5,31.912572860717773)"><rect x="0" height="1" y="3.9750008583068848" width="37.2400016784668"></rect> <rect height="1" y="3.9750008583068848" width="37.2400016784668" x="127.47999954223633"></rect> <g transform="translate(40.2400016784668,0)"><g transform="scale(1)"><path d="M3.42-4.31L2.06-3.05L2.06 0L0.89 0L0.89-8.58L2.06-8.58L2.06-4.41L6.23-8.58L7.88-8.58L4.27-5.11L7.97 0L6.42 0L3.42-4.31ZM15.66-4.27L15.66-4.27Q15.47-7.64 12.66-7.83L12.66-7.83Q9.80-7.69 9.66-4.27L9.66-4.27Q9.80-0.94 12.66-0.80L12.66-0.80Q15.47-0.98 15.66-4.27ZM16.83-4.27L16.83-4.27Q16.55 0 12.66 0.14L12.66 0.14Q8.72 0 8.44-4.27L8.44-4.27Q8.67-8.72 12.66-8.81L12.66-8.81Q16.55-8.67 16.83-4.27ZM19.59-8.58L23.91-1.64L23.91-8.58L25.03-8.58L25.03 0L23.72 0L19.36-6.94L19.31-6.94L19.31 0L18.19 0L18.19-8.58L19.59-8.58ZM33.23-3.61L30.61-3.61L30.61-4.59L34.36-4.59L34.36 0L33.61 0L33.33-1.08Q32.34 0.09 30.52 0.14L30.52 0.14Q28.78 0.14 27.84-0.75L27.84-0.75Q26.44-2.06 26.48-4.36L26.48-4.36Q26.81-8.63 30.56-8.81L30.56-8.81Q33.75-8.63 34.22-6L34.22-6L33.09-6Q32.63-7.78 30.52-7.83L30.52-7.83Q27.84-7.64 27.70-4.31L27.70-4.31Q27.70-0.75 30.56-0.75L30.56-0.75Q31.59-0.75 32.34-1.31L32.34-1.31Q33.28-2.06 33.23-3.61L33.23-3.61ZM39.47-8.58L40.64-8.58L40.64-1.03L45-1.03L45 0L39.47 0L39.47-8.58ZM46.31-8.58L47.48-8.58L47.48 0L46.31 0L46.31-8.58ZM57.70-8.58L57.70 0L56.58 0L56.58-5.06Q56.58-5.77 56.58-7.22L56.58-7.22L54.14 0L52.97 0L50.58-7.22L50.53-7.22Q50.53-6.70 50.58-5.67L50.58-5.67Q50.58-5.16 50.58-5.06L50.58-5.06L50.58 0L49.41 0L49.41-8.58L51.09-8.58L53.58-1.31L56.02-8.58L57.70-8.58ZM59.58-8.58L60.75-8.58L60.75 0L59.58 0L59.58-8.58ZM64.92-7.59L62.02-7.59L62.02-8.58L68.95-8.58L68.95-7.59L66.05-7.59L66.05 0L64.92 0L64.92-7.59ZM71.30-1.03L76.45-1.03L76.45 0L70.13 0L70.13-8.58L76.36-8.58L76.36-7.59L71.30-7.59L71.30-4.92L75.98-4.92L75.98-3.89L71.30-3.89L71.30-1.03ZM81.47 0L78 0L78-8.58L81.52-8.58Q84.98-8.39 85.13-4.41L85.13-4.41Q84.94-0.09 81.47 0L81.47 0ZM81.33-7.64L79.17-7.64L79.17-0.98L81.42-0.98Q83.86-1.13 83.95-4.31L83.95-4.31Q83.91-7.55 81.33-7.64L81.33-7.64Z" transform="translate(-0.890625, 8.8125)"></path></g></g></g></g></g></g><defs v-gra="od"></defs></svg>